<svg width="48" height="48" viewBox="0 0 48 48" fill="none" xmlns="http://www.w3.org/2000/svg">
<g clip-path="url(#clip0_244_32288)">
<path fill-rule="evenodd" clip-rule="evenodd" d="M0 24.6089C0 35.4797 6.87609 44.7038 16.413 47.9578C17.6138 48.1844 18.0514 47.4246 18.0514 46.772C18.0514 46.1873 18.0308 44.6404 18.019 42.5874C11.3433 44.0739 9.93474 39.2881 9.93474 39.2881C8.843 36.445 7.26947 35.6881 7.26947 35.6881C5.0904 34.1609 7.43448 34.1926 7.43448 34.1926C9.8434 34.3663 11.1105 36.729 11.1105 36.729C13.2527 40.4891 16.7283 39.4029 18.0956 38.7729C18.3136 37.1822 18.9339 36.099 19.619 35.4827C14.2899 34.8618 8.68682 32.7514 8.68682 23.3218C8.68682 20.6343 9.62239 18.4378 11.1576 16.7171C10.9116 16.0947 10.088 13.593 11.3934 10.2061C11.3934 10.2061 13.4089 9.54292 17.9925 12.7274C19.9078 12.1821 21.9602 11.9086 24.0007 11.8996C26.0398 11.9086 28.0922 12.1821 30.0105 12.7274C34.5911 9.54292 36.6037 10.2061 36.6037 10.2061C37.912 13.593 37.0884 16.0947 36.8424 16.7171C38.3806 18.4378 39.3088 20.6343 39.3088 23.3218C39.3088 32.7741 33.6983 34.8543 28.3515 35.4646C29.2134 36.2244 29.9796 37.726 29.9796 40.0208C29.9796 43.311 29.9516 45.9653 29.9516 46.772C29.9516 47.4306 30.3833 48.195 31.6017 47.9548C41.1298 44.6948 48 35.4782 48 24.6089C48 11.0173 37.2534 0 23.9978 0C10.7466 0 0 11.0173 0 24.6089Z" fill="black"/>
</g>
<defs>
<clipPath id="clip0_244_32288">
<rect width="48" height="48" fill="white"/>
</clipPath>
</defs>
</svg>
