<svg width="48" height="48" viewBox="0 0 48 48" fill="none" xmlns="http://www.w3.org/2000/svg">
<circle cx="24" cy="24" r="24" fill="#FEE500"/>
<path d="M24.0694 11.5831C16.6025 11.5831 10.5808 16.4004 10.5808 22.2486C10.5808 26.0447 13.0858 29.3687 16.8434 31.2667L15.5716 36.0167C15.5476 36.0879 15.5439 36.1643 15.5609 36.2374C15.5779 36.3106 15.615 36.3776 15.6679 36.4309C15.7451 36.499 15.8444 36.5366 15.9473 36.5369C16.0327 36.53 16.1136 36.4963 16.1786 36.4406L21.6511 32.7505C22.4589 32.862 23.2732 32.9199 24.0887 32.9239C31.5459 32.9239 37.5773 28.1065 37.5773 22.2486C37.5773 16.3907 31.5267 11.5831 24.0694 11.5831Z" fill="#392020"/>
<path d="M15.3014 20.5626H13.8273C13.6446 20.5679 13.4641 20.5211 13.307 20.4277C13.2372 20.384 13.1773 20.3263 13.1308 20.2583C13.0844 20.1903 13.0525 20.1135 13.0372 20.0326C13.0325 19.9813 13.0325 19.9298 13.0372 19.8785C13.0326 19.7826 13.0513 19.6869 13.0915 19.5997C13.1318 19.5125 13.1925 19.4363 13.2685 19.3775C13.4364 19.2559 13.6392 19.1916 13.8465 19.1944H18.2881C18.4723 19.1879 18.654 19.2384 18.8084 19.3389C18.8798 19.3807 18.9411 19.4379 18.9877 19.5062C19.0344 19.5745 19.0653 19.6523 19.0782 19.734C19.0829 19.7821 19.0829 19.8305 19.0782 19.8785C19.0827 19.9759 19.0641 20.0729 19.024 20.1616C18.9838 20.2504 18.9231 20.3283 18.847 20.3891C18.6831 20.5106 18.4823 20.5719 18.2785 20.5626H16.8526V25.6304C16.8584 25.7384 16.8417 25.8463 16.8035 25.9475C16.7654 26.0487 16.7066 26.1409 16.631 26.2181C16.5584 26.292 16.4713 26.3499 16.375 26.3881C16.2788 26.4263 16.1756 26.4438 16.0722 26.4397C15.8912 26.4449 15.7141 26.3871 15.5712 26.276C15.4351 26.1675 15.3427 26.0135 15.311 25.8424C15.3015 25.772 15.3015 25.7008 15.311 25.6304L15.3014 20.5626Z" fill="#FEE500"/>
<path d="M19.5035 19.5702C19.5458 19.4116 19.6454 19.2743 19.7829 19.1847C19.9294 19.1017 20.0964 19.0616 20.2646 19.0691H20.6307C20.8093 19.0627 20.9861 19.1061 21.1414 19.1944C21.3059 19.3051 21.4229 19.4736 21.4689 19.6665L23.3959 25.1101C23.4458 25.2521 23.4877 25.397 23.5211 25.5437C23.5244 25.6047 23.5244 25.6658 23.5211 25.7267C23.5244 25.8206 23.5071 25.9141 23.4705 26.0007C23.4339 26.0872 23.3788 26.1647 23.3092 26.2278C23.2417 26.297 23.1606 26.3515 23.0711 26.388C22.9816 26.4244 22.8855 26.442 22.7889 26.4397C22.6403 26.4545 22.491 26.4188 22.3652 26.3384C22.2394 26.258 22.1442 26.1376 22.0952 25.9965L21.6905 24.8115H19.1566L18.752 25.9965C18.7041 26.1404 18.6078 26.2632 18.4796 26.344C18.3513 26.4248 18.199 26.4586 18.0486 26.4397C17.8857 26.444 17.7261 26.393 17.5958 26.2952C17.4688 26.1942 17.3831 26.0503 17.3549 25.8906C17.3498 25.8361 17.3498 25.7812 17.3549 25.7267C17.3384 25.6311 17.3384 25.5334 17.3549 25.4378C17.3549 25.3318 17.4224 25.2161 17.4609 25.1101L19.5035 19.5702ZM20.4669 20.8324L19.5516 23.7228H21.3726L20.4669 20.8324Z" fill="#FEE500"/>
<path d="M23.7418 19.8786C23.732 19.6624 23.8082 19.4511 23.9537 19.2909C24.0277 19.2163 24.1166 19.158 24.2145 19.1198C24.3124 19.0816 24.4172 19.0644 24.5222 19.0692C24.7027 19.0671 24.8788 19.1247 25.0232 19.2331C25.157 19.3461 25.2459 19.5033 25.2737 19.6762C25.2832 19.7433 25.2832 19.8115 25.2737 19.8786V24.9465H27.9233C28.1069 24.9441 28.2874 24.9941 28.4435 25.0909C28.5137 25.1342 28.5739 25.1918 28.6204 25.2598C28.6669 25.3279 28.6985 25.4049 28.7133 25.486C28.7133 25.486 28.7133 25.5823 28.7133 25.6305C28.7179 25.7265 28.6993 25.822 28.659 25.9093C28.6187 25.9965 28.5581 26.0728 28.4821 26.1315C28.3141 26.2532 28.1114 26.3173 27.904 26.3145H24.6474C24.44 26.3279 24.2339 26.2739 24.0597 26.1605C23.904 26.044 23.8002 25.871 23.7707 25.6787C23.7636 25.5729 23.7636 25.4666 23.7707 25.3607L23.7418 19.8786Z" fill="#FEE500"/>
<path d="M28.8869 19.8787C28.8811 19.6631 28.9568 19.4532 29.0989 19.291C29.2433 19.1598 29.4285 19.0823 29.6233 19.0717C29.8181 19.0612 30.0106 19.1182 30.1683 19.2331C30.3051 19.3451 30.3973 19.5023 30.4285 19.6763C30.4332 19.7436 30.4332 19.8113 30.4285 19.8787V22.2391L32.866 19.4258C32.96 19.3298 33.0597 19.2398 33.1647 19.1561C33.2637 19.0971 33.3772 19.067 33.4923 19.0693C33.6607 19.0684 33.8254 19.1188 33.9644 19.2138C34.0299 19.2579 34.0859 19.3148 34.1289 19.3811C34.1719 19.4473 34.2012 19.5215 34.2149 19.5992C34.2188 19.6183 34.2188 19.638 34.2149 19.6571C34.2102 19.6793 34.2102 19.7022 34.2149 19.7245C34.2146 19.8259 34.188 19.9255 34.1378 20.0136C34.0867 20.1068 34.0253 20.194 33.9548 20.2736L32.3554 22.0272L34.2823 25.0139V25.1103C34.3824 25.2483 34.4604 25.4012 34.5136 25.5632V25.6113C34.5247 25.7229 34.5086 25.8356 34.4667 25.9396C34.4247 26.0437 34.3582 26.136 34.2727 26.2086C34.112 26.3301 33.9153 26.3946 33.7139 26.3917C33.58 26.3973 33.4471 26.3673 33.3285 26.3049C33.2002 26.2189 33.0944 26.1033 33.0202 25.9678L31.2281 23.0773L30.3707 23.9734V25.5823C30.3764 25.7979 30.3007 26.0078 30.1587 26.17C30.0825 26.2445 29.992 26.3026 29.8926 26.3407C29.7931 26.3788 29.687 26.3962 29.5806 26.3917C29.4028 26.3955 29.2292 26.3376 29.0892 26.2279C28.9531 26.1194 28.8608 25.9655 28.8291 25.7944C28.8196 25.7241 28.8196 25.6527 28.8291 25.5823L28.8869 19.8787Z" fill="#FEE500"/>
</svg>
