<svg width="21" height="20" viewBox="0 0 21 20" fill="none" xmlns="http://www.w3.org/2000/svg">
<g opacity="0.6">
<path d="M10.7 10.1699C9.73995 10.1699 8.80001 9.8899 8.01001 9.3499C7.21001 8.8199 6.58997 8.0599 6.21997 7.1699C5.84997 6.2799 5.75994 5.3099 5.93994 4.3699C6.12994 3.4299 6.59002 2.5699 7.27002 1.8899C7.95002 1.2099 8.81 0.749897 9.75 0.559897C10.69 0.369897 11.67 0.469898 12.55 0.839898C13.44 1.2099 14.19 1.8299 14.73 2.6299C15.26 3.4299 15.55 4.3699 15.55 5.3199C15.55 6.6099 15.04 7.8399 14.13 8.7499C13.22 9.6599 11.99 10.1699 10.7 10.1699ZM10.7 2.4099C10.12 2.4099 9.55996 2.5799 9.07996 2.8999C8.59996 3.2199 8.23001 3.6699 8.01001 4.2099C7.79001 4.7399 7.72997 5.3299 7.83997 5.8899C7.94997 6.4499 8.23001 6.9699 8.64001 7.3799C9.05001 7.7899 9.57 8.0599 10.13 8.1799C10.69 8.2899 11.2801 8.2299 11.8101 8.0099C12.3401 7.7899 12.8 7.4199 13.12 6.9399C13.44 6.4599 13.61 5.8999 13.61 5.3199C13.61 4.5499 13.3 3.8099 12.76 3.2599C12.21 2.7099 11.47 2.4099 10.7 2.4099ZM19.75 19.2199C19.49 19.2199 19.2499 19.1099 19.0699 18.9299C18.8899 18.7499 18.79 18.4999 18.78 18.2499C18.78 15.7299 17.41 14.0499 10.7 14.0499C3.98995 14.0499 2.62 15.7299 2.62 18.2499C2.62 18.5099 2.51997 18.7499 2.33997 18.9399C2.15997 19.1199 1.91002 19.2199 1.65002 19.2199C1.39002 19.2199 1.14996 19.1199 0.959961 18.9399C0.779961 18.7599 0.680054 18.5099 0.680054 18.2499C0.680054 12.1099 7.69995 12.1099 10.7 12.1099C13.7 12.1099 20.72 12.1099 20.72 18.2499C20.72 18.5099 20.6101 18.7499 20.4301 18.9299C20.2501 19.1099 20 19.2099 19.75 19.2199Z" fill="white"/>
</g>
</svg>
