<svg width="27" height="25" viewBox="0 0 27 25" fill="none" xmlns="http://www.w3.org/2000/svg">
<g opacity="0.6">
<path d="M25.62 12.84H9.64001M9.64001 12.84C9.64001 12.1 9.34006 11.38 8.81006 10.85C8.28006 10.32 7.55995 10.02 6.81995 10.02C6.07995 10.02 5.35996 10.32 4.82996 10.85C4.29996 11.38 4 12.09 4 12.84M9.64001 12.84C9.64001 13.58 9.34006 14.3 8.81006 14.83C8.28006 15.36 7.55995 15.66 6.81995 15.66C6.07995 15.66 5.35996 15.36 4.82996 14.83C4.29996 14.3 4 13.58 4 12.84M4 12.84H1.68994M25.62 21.39H18.1899M18.1899 21.39C18.1899 22.14 17.89 22.86 17.36 23.38C16.83 23.9 16.11 24.21 15.37 24.21C14.63 24.21 13.91 23.91 13.38 23.38C12.85 22.85 12.55 22.13 12.55 21.39M18.1899 21.39C18.1899 20.64 17.89 19.93 17.36 19.4C16.83 18.87 16.11 18.57 15.37 18.57C14.63 18.57 13.91 18.87 13.38 19.4C12.85 19.93 12.55 20.65 12.55 21.39M12.55 21.39H1.69995M25.62 4.29998H21.6M15.97 4.29998H1.69995M15.97 4.29998C15.97 3.54998 16.27 2.83998 16.8 2.30998C17.33 1.77998 18.05 1.47998 18.79 1.47998C19.16 1.47998 19.53 1.54998 19.87 1.68998C20.21 1.82998 20.52 2.03998 20.78 2.29998C21.04 2.55998 21.25 2.86998 21.39 3.20998C21.53 3.54998 21.6 3.91998 21.6 4.28998C21.6 4.65998 21.53 5.02998 21.39 5.36998C21.25 5.70998 21.04 6.01998 20.78 6.27998C20.52 6.53998 20.21 6.74998 19.87 6.88998C19.53 7.02998 19.16 7.09998 18.79 7.09998C18.04 7.09998 17.33 6.79998 16.8 6.26998C16.27 5.73998 15.97 5.01998 15.97 4.27998V4.29998Z" stroke="white" stroke-width="1.5" stroke-miterlimit="10" stroke-linecap="round"/>
</g>
</svg>
