<svg width="25" height="28" viewBox="0 0 25 28" fill="none" xmlns="http://www.w3.org/2000/svg">
<path d="M10.03 24.84H15.2C15.2 26.26 14.04 27.43 12.61 27.43C11.18 27.43 10.02 26.27 10.02 24.84H10.03ZM24.26 22.25V23.54H0.97998V22.25L3.56995 19.66V11.9C3.56995 7.89 6.16004 4.4 10.04 3.23V2.84C10.04 1.42 11.2 0.25 12.63 0.25C14.06 0.25 15.22 1.41 15.22 2.84V3.23C19.1 4.39 21.6899 7.89 21.6899 11.9V19.66L24.28 22.25H24.26ZM19.09 11.91C19.09 8.29 16.24 5.44 12.62 5.44C9 5.44 6.15002 8.29 6.15002 11.91V20.96H19.08V11.91H19.09Z" fill="white"/>
</svg>
