<svg width="50" height="50" viewBox="0 0 50 50" fill="none" xmlns="http://www.w3.org/2000/svg">
<path d="M40.59 34.9501L25.96 38.0401L30.6 23.8201L33.59 27.1502L47.66 14.5201C46.66 12.3501 45.32 10.3001 43.65 8.43015C34.61 -1.63985 19.11 -2.47985 9.03995 6.57015C1.36995 13.4601 -0.940047 24.0901 2.38995 33.2101L12.34 24.2801L9.34995 20.9501L23.98 17.8601L19.34 32.0802L16.35 28.7501L5.23995 38.7201C5.82995 39.5701 6.46995 40.4002 7.17995 41.1801C16.22 51.2501 31.72 52.0901 41.79 43.0401C48.24 37.2501 50.9 28.8101 49.6 20.8401L37.61 31.6001L40.6 34.9301L40.59 34.9501Z" fill="#008FFB"/>
</svg>
