<svg width="153" height="133" viewBox="0 0 153 133" fill="none" xmlns="http://www.w3.org/2000/svg">
<path d="M105.25 36.76C103.21 39.06 102.09 42.38 99.36 43.83C96.99 45.1 94.11 44.57 91.48 44.01C91.42 42.02 91.35 40.02 91.28 38.03C88.99 36.43 86.7 34.83 84.4 33.23C84.01 32.96 83.59 32.68 83.12 32.66C82.65 32.64 82.13 33.03 82.19 33.5C81.66 32.66 81.14 31.81 80.61 30.97C80.83 30.82 81.08 30.72 81.33 30.69C81.33 26.86 81.45 22.94 81.45 19.11C82.49 17.5 83.47 15.86 84.51 14.24C84.51 12.97 84.51 11.69 84.51 10.42C86.16 9.33998 87.99 8.45 89.85 7.75C91.09 12.17 90.17 17.37 92.27 21.55C93.08 23.16 94.3 24.53 95.5 25.87L103.88 35.22C104.33 35.73 104.79 36.24 105.25 36.75V36.76Z" fill="#F6F6FB" stroke="#EFEFEF" stroke-miterlimit="10"/>
<path d="M126.46 70.47C126.17 71.75 125.83 73.03 125.43 74.29C124.96 75.81 124.41 77.3 123.79 78.76C122.28 82.33 119.93 86.0401 116.16 86.9301C113.76 87.4901 111.27 86.76 109.03 85.66C109 85.52 108.97 85.38 108.94 85.23C108.61 83.6 108.29 81.9 108.73 80.29C109.33 78.11 111.24 76.54 112.22 74.5C113.04 72.81 113.09 70.82 112.53 69.02C112.57 69.01 112.62 69 112.66 68.98C112.24 67.9 112.78 66.63 113.65 65.87C114.05 65.51 114.51 65.24 115 65.02C115.57 64.76 116.17 64.56 116.76 64.36C117.26 64.2 117.76 64.04 118.26 63.87C120.02 63.3 121.83 62.73 123.65 62.33C123.62 62.87 123.59 63.4 123.55 63.94C123.07 64.53 122.64 65.21 122.15 65.8C122.06 67.3 122.22 68.83 122.68 70.26C123.76 70.26 124.79 70.45 125.87 70.46C126.06 70.46 126.26 70.46 126.46 70.46V70.47Z" fill="#F6F6FB" stroke="#EFEFEF" stroke-miterlimit="10"/>
<path d="M108.74 80.29C109.34 78.11 111.24 76.54 112.23 74.5C113.05 72.81 113.1 70.82 112.53 69.03C110.74 69.65 108.73 68.75 107.21 67.59C105.65 66.4 104.28 64.89 102.46 64.16C100.57 63.4 98.45 63.58 96.42 63.78C95.8 63.84 95.18 63.9 94.56 63.96C94.36 64.79 94.18 65.63 93.99 66.45C93.26 69.53 92.06 72.8201 89.74 74.8101C91.18 76.8601 92.43 79.12 92.4 81.5C97.99 79.55 103.06 82.46 108.21 85.24C108.48 85.38 108.75 85.52 109.03 85.66C109 85.52 108.97 85.38 108.94 85.23C108.61 83.6 108.29 81.9 108.73 80.3L108.74 80.29Z" fill="#F6F6FB" stroke="#EFEFEF" stroke-miterlimit="10"/>
<path d="M128.53 33.2C128.41 33.75 128.3 34.29 128.18 34.83L128.03 35.07C127.28 35.59 126.48 36.05 125.65 36.44L125.46 36.54C125.4 37.23 125.35 37.91 125.29 38.6C125.26 38.97 125.56 39.29 125.71 39.63C126.02 39.82 126.35 40 126.7 40.15C123.22 40.74 119.8 41.66 116.5 42.91C115.49 43.29 114.45 43.71 113.37 43.65C113.3 43.65 113.24 43.64 113.17 43.63C111.35 43.44 109.92 41.97 108.68 40.59L105.24 36.76C104.78 36.25 104.33 35.74 103.87 35.23C105.47 33.63 106.63 31.59 107.19 29.39C108.37 24.67 106.75 19.75 106.45 14.89C106.26 11.8 106.62 8.68002 107.49 5.71002C107.58 5.71002 107.67 5.71002 107.76 5.71002C107.93 5.45002 108.12 5.18999 108.3 4.92999C109.59 2.97999 112.46 2.68998 114.38 1.34998C116.15 2.57998 117.93 3.85002 119.71 5.08002C120.48 5.04002 121.22 5.11002 121.99 5.08002C122.09 5.08002 122.21 5.08001 122.3 5.14001C122.39 5.20001 122.42 5.30997 122.45 5.40997C122.61 5.98997 122.77 6.56997 122.94 7.15997C121.86 8.04997 120.98 9.15997 120.38 10.41C120.99 11.71 121.92 12.96 123.1 13.79C123.19 14.95 123.28 16.2 123.37 17.37C122.7 17.81 122.02 18.26 121.34 18.7C121.27 19.61 121.19 20.54 121.11 21.45C121.08 21.85 120.93 22.23 120.83 22.63C120.54 23.78 120.91 25.02 121.43 26.09C121.6 26.43 122.06 26.64 122.34 26.89C123.33 26.89 124.32 26.85 125.31 26.85C125.88 27.28 126.47 27.74 127.04 28.18C127.21 29.28 127.43 30.55 127.6 31.64C127.69 32.25 128.21 32.71 128.53 33.23V33.2Z" fill="#F6F6FB" stroke="#EFEFEF" stroke-miterlimit="10"/>
<path d="M95.5 25.88C98.29 29 101.09 32.11 103.88 35.23C105.48 33.62 106.65 31.59 107.2 29.39C108.38 24.67 106.77 19.75 106.46 14.89C106.27 11.8 106.63 8.68002 107.5 5.71002C107 5.71002 106.49 5.72998 105.99 5.72998C105.31 5.14998 104.64 4.54997 103.96 3.96997C102.63 3.98997 101.29 4.02999 99.96 4.04999C99.72 3.12999 99.51 2.15999 99.27 1.23999C96.91 1.27999 94.7 1.36998 92.34 1.41998C91.85 2.08998 91.08 2.60998 90.94 3.41998C90.7 4.74998 90.6 6.11997 90.66 7.46997C90.39 7.55997 90.12 7.66001 89.85 7.76001C91.09 12.18 90.17 17.38 92.27 21.56C93.08 23.17 94.3 24.54 95.5 25.88Z" fill="#F6F6FB" stroke="#EFEFEF" stroke-miterlimit="10"/>
<path d="M92.42 81.49C91.73 81.73 91.03 82.0399 90.32 82.4399C88.39 83.5299 86.76 85.14 85.59 87.02C84.65 88.56 84.54 90.91 82.67 91.53C80.26 92.32 77.74 92.48 75.35 92.04C72.4 91.48 69.65 89.99 67.59 87.6C66.27 86.07 65.52 84.5 65.02 82.63C67.2 80.56 69.73 78.79 71.4 76.29C72.18 75.13 72.71 73.7 72.86 72.29C75.38 72.27 77.91 72.26 80.44 72.24C81.18 72.24 81.96 72.24 82.64 72.55C83.32 72.86 83.88 73.56 83.77 74.3C85.43 74.01 87.1 73.71 88.76 73.42C89.1 73.87 89.44 74.33 89.77 74.8C91.21 76.85 92.46 79.11 92.44 81.49H92.42Z" fill="#F6F6FB" stroke="#EFEFEF" stroke-miterlimit="10"/>
<path d="M128.91 51.17C128.76 51.6 128.65 52.02 128.5 52.44C128.23 52.52 127.91 52.65 127.63 52.73C127.63 53.63 127.57 54.54 127.57 55.44C126.71 56.24 125.97 57.29 125.39 58.31C125.39 58.55 125.41 58.79 125.41 59.02C124.54 59.41 123.7 59.87 122.83 60.26C123.13 60.71 123.41 61.15 123.7 61.6C123.68 61.85 123.67 62.1 123.65 62.34C121.83 62.74 120.02 63.31 118.26 63.88C117.76 64.05 117.26 64.21 116.76 64.37C116.17 64.56 115.56 64.77 115 65.03C113.79 59.31 113.15 53.47 113.11 47.63C113.11 46.3 113.12 44.97 113.17 43.64C113.23 43.64 113.3 43.66 113.37 43.66C114.45 43.72 115.49 43.3 116.5 42.92C119.8 41.67 123.22 40.75 126.7 40.16C127.23 40.39 127.78 40.55 128.34 40.6C128.32 41.09 128.29 41.58 128.28 42.07C129.06 42.44 129.84 42.89 130.62 43.27C130.62 43.86 130.63 44.42 130.63 45.01C129.75 46.3 128.71 47.47 127.51 48.47C127.68 48.99 127.83 49.53 128 50.05C128.14 50.5 128.6 50.83 128.91 51.18V51.17Z" fill="#F6F6FB" stroke="#EFEFEF" stroke-miterlimit="10"/>
<path d="M74.6099 66.47C73.7099 67.03 72.7799 67.56 71.8299 68.02C70.5199 68.64 69.16 69.11 67.7299 69.25C64.87 69.54 61.9999 68.51 59.5999 66.93C57.1999 65.35 55.19 63.25 53.2 61.18C52.53 60.47 51.8499 59.77 51.1799 59.06C51.7199 57.66 52.6299 56.41 53.8199 55.51C55.8499 53.97 58.6199 53.48 61.0499 54.21C61.1699 53.1 61.2899 51.99 61.4099 50.88C62.7499 50.85 64.0899 50.81 65.4299 50.78C65.4999 49.4 65.57 48.02 65.64 46.64C66.4 47.4 67.8 47.07 68.45 46.21C68.67 45.92 68.82 45.6 68.92 45.26C69.28 45.47 69.6299 45.69 69.9899 45.9C69.3399 46.74 69.2799 47.98 69.8399 48.88C70.3999 49.78 71.5399 50.28 72.5799 50.08C72.1499 52.82 71.7199 55.57 71.2899 58.31C71.0799 59.65 70.8699 61.05 71.3099 62.34C71.7499 63.62 73.0499 64.72 74.3799 64.43C74.4599 65.11 74.5399 65.8 74.6199 66.48L74.6099 66.47Z" fill="#F6F6FB" stroke="#EFEFEF" stroke-miterlimit="10"/>
<path d="M115.01 65.03C114.52 65.25 114.06 65.52 113.66 65.88C112.79 66.65 112.25 67.91 112.67 68.99C112.63 69.01 112.58 69.02 112.54 69.03C110.74 69.65 108.74 68.76 107.22 67.59C105.66 66.4 104.29 64.89 102.47 64.16C100.58 63.4 98.4601 63.58 96.4301 63.78C95.8101 63.84 95.1901 63.9 94.5701 63.96C94.7601 63.15 94.9601 62.35 95.1901 61.56C95.8501 59.35 96.7501 57.27 98.3701 55.66C100.17 53.88 102.88 52.56 103.19 50.06C106.5 49.25 109.8 48.44 113.11 47.63C113.15 53.47 113.79 59.31 115 65.03H115.01Z" fill="#F6F6FB" stroke="#EFEFEF" stroke-miterlimit="10"/>
<path d="M56.4299 98.8C57.7799 97.14 58.1299 94.91 58.7399 92.85C59.8099 89.21 61.7899 85.85 64.4699 83.16C64.6499 82.98 64.8399 82.8 65.0199 82.62C64.9699 82.44 64.9199 82.27 64.8799 82.08C64.2899 79.55 58.33 78.45 56.14 77.4C52.92 75.85 49.82 74.04 46.89 72.01C45.77 71.23 44.6699 70.42 43.5899 69.58C42.9699 70.65 42.21 71.67 41.7 72.79C41.53 72.75 41.36 72.73 41.2 72.7C41.83 75.05 42.7599 77.31 43.9599 79.42C44.3499 80.1 44.0199 81.35 44.0199 82.13C43.2799 82.37 42.5599 82.81 41.8199 83.04C41.8199 85.75 41.8199 88.4799 41.8199 91.1899C43.0099 92.0299 44.2099 92.88 45.3999 93.72C45.4399 94.82 45.63 96.05 45.67 97.14C46.14 97.4 46.67 97.66 47.14 97.92C47.04 99.62 47.1399 101.38 47.3499 103.12C48.3699 103.69 49.0699 104.59 50.0999 105.15C50.2499 105.01 50.4099 104.88 50.5799 104.75C50.8099 103.91 51.3 103.08 51.92 102.48C53.31 101.12 55.19 100.29 56.42 98.78L56.4299 98.8Z" fill="#F6F6FB" stroke="#EFEFEF" stroke-miterlimit="10"/>
<path d="M67.59 87.6C66.27 86.07 65.52 84.5 65.02 82.63C64.83 82.81 64.65 82.99 64.47 83.17C61.8 85.86 59.81 89.22 58.74 92.86C58.14 94.92 57.78 97.1401 56.43 98.8101C55.2 100.32 53.32 101.15 51.93 102.51C51.31 103.11 50.82 103.94 50.59 104.78C51.16 104.33 51.82 103.91 52.32 103.44C53.62 103.44 55.08 103.27 56.38 103.27C56.74 102.28 57.43 101.29 57.78 100.29C61.75 100.68 65.73 100.8 69.7 101.2C70.64 101.29 71.4 102.44 72.18 102.96C71.97 104.05 71.97 105.16 71.76 106.26C72.79 107.06 73.81 108.12 74.84 108.92C75.31 108.92 75.47 108.92 75.94 108.92C76.86 108.92 77.81 108.66 78.68 108.23C78.53 106.17 78.51 104.1 78.63 102.03C78.77 99.68 78.97 96.9899 77.3 95.3199C76.54 95.1999 75.78 95.09 75.02 94.97C75.13 94 75.24 93.02 75.34 92.05C72.39 91.49 69.64 90.01 67.58 87.61L67.59 87.6Z" fill="#F6F6FB" stroke="#EFEFEF" stroke-miterlimit="10"/>
<path d="M94.5701 63.96C94.3701 64.79 94.1901 65.63 94.0001 66.45C93.2701 69.53 92.0701 72.82 89.7501 74.8C89.4201 74.33 89.0801 73.87 88.7401 73.42C87.0801 73.71 85.4101 74.01 83.7501 74.3C83.8601 73.56 83.3001 72.86 82.6201 72.55C81.9401 72.24 81.1701 72.24 80.4201 72.24C77.9001 72.26 75.3701 72.27 72.8401 72.29C73.0101 70.74 72.7201 69.2 71.8201 68.01C72.7701 67.56 73.7001 67.02 74.6001 66.46C74.9801 66.23 75.3501 65.99 75.7201 65.76C77.3001 64.75 78.8901 63.75 80.4801 62.74C83.0801 64.89 86.8301 64.69 90.1801 64.36C91.6401 64.22 93.1001 64.08 94.5601 63.94L94.5701 63.96Z" fill="#F6F6FB" stroke="#EFEFEF" stroke-miterlimit="10"/>
<path d="M151.71 76.9101C151.79 76.4801 151.8 75.9701 151.89 75.5401C151.67 75.3901 151.45 75.24 151.23 75.08C151.23 74.1 151.58 72.98 151.17 72.09C150.9 71.49 150.69 70.82 150.42 70.22C150.74 69.54 150.99 68.78 151.31 68.1C151.19 67.14 151.02 66.22 150.91 65.26C150.18 64.78 149.49 64.18 148.76 63.7C148.62 63.15 148.47 62.61 148.33 62.06C148.26 62.06 148.16 61.98 148.09 62.01C145.51 63.41 142.96 64.76 140.37 66.16C138.71 66.02 137.04 65.95 135.38 65.81C133.15 67.33 130.98 68.88 128.75 70.4C128 70.42 127.22 70.45 126.46 70.46C126.17 71.75 125.83 73.02 125.43 74.28C126.4 75.09 127.37 75.9 128.34 76.71C128.71 77.02 129.09 77.34 129.35 77.75C130 78.79 129.74 80.12 129.72 81.34C129.67 83.96 130.8 86.4401 131.92 88.8101C133.99 88.4001 136.17 88.56 138.17 89.23C139.26 87.76 140.21 86.17 141.02 84.52C140.58 83.1 140.49 81.67 140.65 80.19C144.27 79.18 148.08 77.91 151.7 76.89L151.71 76.9101Z" fill="#F6F6FB" stroke="#EFEFEF" stroke-miterlimit="10"/>
<path d="M117.83 119.84C118.11 120.78 118.42 121.68 118.71 122.62C118.25 123.04 117.85 123.51 117.39 123.93C116.92 123.82 116.37 123.79 115.9 123.67C115.7 124.26 115.47 124.85 115.27 125.44C113.64 126.07 111.71 126.48 109.97 126.57C109.38 128.34 108.97 130.09 108.88 131.95C106.82 131.72 104.69 131.28 102.69 130.72C101.59 129.49 100.39 128.34 99.05 127.38C99.29 124.82 98.73 122.11 97.51 119.84C96.81 118.53 97.48 116.89 97.48 115.4L97.12 115.36C96.12 115.19 95.12 115.02 94.12 114.85C92.6 115.82 90.99 116.89 89.46 117.86C89.19 118.03 88.91 118.21 88.7 118.45C88.49 118.69 88.34 119.01 88.38 119.33C87.57 119.15 86.74 119.1 85.93 118.92C85.98 118.24 85.95 117.61 85.99 116.93C85.46 116.5 84.92 115.94 84.39 115.51C83.5 115.51 82.54 115.83 81.86 116.4C81.36 116.83 80.85 117.26 80.35 117.69C79.47 114.6 78.91 111.42 78.67 108.21C78.52 106.15 78.5 104.08 78.62 102.02C78.76 99.67 78.96 96.9701 77.29 95.3101C76.53 95.1901 75.77 95.08 75.01 94.96C75.12 93.99 75.22 93.01 75.33 92.04C77.72 92.49 80.25 92.33 82.65 91.53C84.53 90.91 84.63 88.56 85.57 87.02C86.73 85.13 88.36 83.5299 90.3 82.4399C91.01 82.0399 91.71 81.73 92.4 81.49C92.4 81.85 92.37 82.22 92.3 82.58C92.07 83.84 91.45 84.99 91.12 86.23C90.13 89.91 91.77 93.74 93.49 97.14C94.72 99.59 96.02 102.02 97.31 104.45C98.09 105.91 98.87 107.38 99.65 108.84C100.83 111.06 102.25 113.47 104.66 114.17C107.18 114.9 110.12 113.06 110.58 110.48C112.63 110.48 114.68 110.48 116.73 110.48C116.63 113.88 117.78 117.28 119.81 120.01C119.15 119.94 118.5 119.9 117.84 119.83L117.83 119.84Z" fill="#F6F6FB" stroke="#EFEFEF" stroke-miterlimit="10"/>
<path d="M75.94 108.91C75.47 108.91 75.31 108.91 74.84 108.91C73.81 108.11 72.79 107.05 71.76 106.25C71.97 105.16 71.97 104.05 72.18 102.95C71.4 102.43 70.63 101.29 69.7 101.19C65.73 100.8 61.75 100.68 57.78 100.28C57.42 101.27 56.73 102.26 56.38 103.26C55.08 103.26 53.62 103.43 52.32 103.43C51.82 103.9 51.16 104.32 50.59 104.77C50.3 105.83 50.41 106.92 51.2 107.67L52.99 106.68C53.05 110.22 53.1 113.77 53.16 117.31C55.04 117.69 56.35 119.52 56.72 121.4C56.82 121.93 56.87 122.46 56.87 122.99C57.58 123.01 58.31 123.01 59.02 123.03C59.05 123.55 59.3 124.08 59.6 124.5C60.21 125.35 60.84 126.23 61.45 127.09C63.93 127.14 66.56 127.38 69.05 127.44C72.78 124.25 76.61 120.92 80.37 117.71C79.49 114.62 78.93 111.44 78.69 108.24C77.82 108.67 76.87 108.93 75.95 108.93L75.94 108.91Z" fill="#F6F6FB" stroke="#EFEFEF" stroke-miterlimit="10"/>
<path d="M56.87 122.99C56.75 122.99 56.64 122.99 56.52 122.99C55.48 123.54 54.43 124.16 53.64 125.03C53.58 125.52 53.48 125.96 53.42 126.45C52.75 126.76 52.06 127.09 51.39 127.41C49.93 127.41 48.42 127.45 46.95 127.45C46.24 126.1 45.79 124.65 45.48 123.15C44.97 120.65 44.45 118.14 43.93 115.64C43.86 115.28 43.44 115.1 43.08 115.03C42.72 114.96 42.36 115.01 42 115.05C41.85 114.11 41.72 113.06 41.56 112.11C41.22 109.98 39.74 108.13 38.89 106.14C38.69 105.67 38.63 105.14 38.63 104.6C41.26 104.56 43.89 104.52 46.51 104.48C46.77 104.01 47.04 103.6 47.3 103.13C47.32 103.13 47.33 103.15 47.35 103.16C48.37 103.73 49.07 104.63 50.1 105.19C50.25 105.05 50.41 104.92 50.58 104.79C50.29 105.85 50.4 106.94 51.19 107.69C51.79 107.36 52.39 107.03 52.98 106.7L53.15 117.33C55.03 117.71 56.34 119.54 56.71 121.42C56.81 121.95 56.86 122.48 56.86 123.01L56.87 122.99Z" fill="#F6F6FB" stroke="#EFEFEF" stroke-miterlimit="10"/>
<path d="M131.92 88.8199C130.81 86.4499 129.68 83.97 129.72 81.35C129.74 80.13 130 78.8 129.35 77.76C129.09 77.35 128.71 77.03 128.34 76.72C127.37 75.91 126.4 75.1 125.43 74.29C124.95 75.81 124.41 77.3 123.79 78.76C122.28 82.32 119.93 86.04 116.16 86.92C113.76 87.48 111.27 86.75 109.03 85.65C109.46 87.77 109.88 89.88 110.31 92C110.65 93.69 111 95.4001 111.8 96.9301C112.6 98.4601 113.93 99.7899 115.6 100.19C117.92 100.74 120.89 99.6 122.45 101.41C122.98 102.03 123.18 102.86 123.61 103.55C124.04 104.24 124.88 104.83 125.63 104.5C126.58 108.39 128.55 112.02 131.25 114.96C131.58 113.81 132.1 112.66 132.64 111.63C133.77 111.88 134.95 112.14 136.08 112.39C136.49 112.31 136.96 112.06 136.99 111.64C137.09 110.25 137.32 108.89 137.42 107.5C137.85 107.66 138.26 107.7 138.69 107.86C139.26 107.32 139.84 106.78 140.41 106.24L140.61 105.83C140.76 104.29 140.91 102.74 141.05 101.2L141.57 101.04C142.13 100.8 142.69 100.62 143.26 100.38C143.12 99.77 142.96 99.09 142.83 98.48C140.45 98.21 138.14 97.25 136.05 96.1C136.14 95.34 136.21 94.54 136.3 93.78C135.87 93.47 135.46 93.02 135.04 92.71C136.2 91.67 137.24 90.5 138.17 89.25C136.17 88.58 133.99 88.41 131.92 88.83V88.8199Z" fill="#F6F6FB" stroke="#EFEFEF" stroke-miterlimit="10"/>
<path d="M47.31 103.13C47.31 103.13 47.34 103.15 47.36 103.16C47.15 101.42 47.05 99.67 47.15 97.96C46.68 97.7 46.15 97.4401 45.68 97.1801C45.64 96.0801 45.45 94.85 45.41 93.76C44.22 92.92 43.02 92.07 41.83 91.23C41.83 91.28 41.83 91.34 41.83 91.39C41.36 92.02 40.89 92.8 40.42 93.42C38.8 93.42 37.03 93.58 35.41 93.58C34.94 92.57 34.19 91.61 33.72 90.59C32.78 90.68 31.81 90.71 30.87 90.8C29.83 91.7 28.53 92.74 27.49 93.63C26.93 94.12 25.98 94.04 25.25 94.2C24.88 93.19 24.16 92.25 23.79 91.24C23 91.39 22.22 91.53 21.44 91.66C21.57 91.71 21.71 91.7699 21.84 91.8199C21.84 91.8799 21.97 92.04 21.95 92.09C20.79 94.52 19.58 96.95 18.42 99.38C19.04 100.91 19.59 102.61 19.92 104.23C19.24 106.18 18.56 108.12 17.89 110.07L17.92 110.47C18.53 110.49 19.21 110.55 19.81 110.57C20.67 110.29 21.57 109.99 22.43 109.71C22.63 109.91 22.89 110.09 23.08 110.28C24.66 110.29 26.49 110.12 28.07 110.13C29.23 107.92 32.79 107.17 33.26 104.72C33.43 103.82 33.71 102.8 33.88 101.9C34.63 101.37 35.43 100.89 36.18 100.36C37.04 101.07 37.89 101.84 38.75 102.54C38.75 103.2 38.66 103.9 38.65 104.59C41.28 104.55 43.9 104.51 46.53 104.47C46.79 104 47.06 103.59 47.32 103.12L47.31 103.13Z" fill="#F6F6FB" stroke="#EFEFEF" stroke-miterlimit="10"/>
<path d="M123.61 103.56C123.19 102.87 122.98 102.04 122.45 101.42C120.89 99.6101 117.93 100.75 115.6 100.2C113.92 99.8 112.6 98.46 111.8 96.94C111 95.41 110.65 93.7001 110.31 92.0101C109.88 89.8901 109.46 87.7801 109.03 85.6601C108.75 85.5201 108.48 85.3801 108.21 85.2401C103.06 82.4601 97.9899 79.5401 92.3999 81.5001C92.3999 81.8601 92.3699 82.23 92.2999 82.6C92.0699 83.86 91.4499 85.0101 91.1199 86.2501C90.1299 89.9301 91.7699 93.7601 93.4899 97.1601C94.7299 99.6201 96.0199 102.04 97.3099 104.47L99.6499 108.86C100.83 111.07 102.25 113.49 104.66 114.19C107.18 114.92 110.12 113.08 110.58 110.5C112.63 110.5 114.68 110.5 116.73 110.5C116.63 113.9 117.78 117.3 119.81 120.03C119.86 120.03 119.9 120.03 119.95 120.04C120.2 119.75 120.53 119.45 120.78 119.16C121.6 119.61 122.67 119.9 123.61 119.88C123.8 119.51 123.99 119.13 124.18 118.76C125.16 118.68 126.35 118.59 127.33 118.51C127.79 117.76 128.29 116.99 128.76 116.23C129.54 116.3 130.33 116.15 131.04 115.82C131.1 115.54 131.17 115.26 131.25 114.98C128.54 112.04 126.58 108.41 125.63 104.52C124.89 104.85 124.04 104.26 123.61 103.57V103.56Z" fill="#F6F6FB" stroke="#EFEFEF" stroke-miterlimit="10"/>
<path d="M72.85 72.29C72.7 73.7 72.17 75.12 71.39 76.29C69.72 78.79 67.19 80.56 65.01 82.63C64.96 82.45 64.91 82.28 64.87 82.09C64.28 79.56 58.32 78.46 56.13 77.41C52.91 75.86 49.81 74.05 46.88 72.02C45.76 71.24 44.66 70.43 43.58 69.59C39.66 66.52 36.07 63.02 32.91 59.17L33.48 59.04C34.43 58.36 35.38 57.68 36.33 57.01C37.37 57.14 38.46 57.26 39.49 57.39C40.37 56.38 41.27 55.4 42.15 54.38C42.28 53.68 42.37 52.96 42.51 52.26C43.06 52.2 43.59 52.09 44.14 52.03C44.25 52.02 44.35 52.01 44.46 52.01C46.7 54.35 48.94 56.7 51.18 59.04C51.85 59.74 52.53 60.45 53.2 61.16C55.19 63.24 57.19 65.34 59.6 66.91C62.01 68.49 64.87 69.52 67.73 69.23C69.17 69.09 70.53 68.62 71.83 68C72.73 69.19 73.02 70.72 72.85 72.28V72.29Z" fill="#F6F6FB" stroke="#EFEFEF" stroke-miterlimit="10"/>
<path d="M73.81 32.01C72.96 33.09 72.1 34.17 71.25 35.25C70.14 36.64 68.99 38.15 68.81 39.92C68.7 40.99 68.95 42.05 69.06 43.12C69.13 43.83 69.12 44.58 68.92 45.25C68.82 45.59 68.67 45.92 68.45 46.2C67.8 47.05 66.4 47.39 65.64 46.63C65.57 48.01 65.5 49.39 65.43 50.77C64.09 50.8 62.75 50.84 61.41 50.87C61.29 51.98 61.17 53.09 61.05 54.2C58.61 53.46 55.84 53.96 53.82 55.5C52.63 56.41 51.71 57.66 51.18 59.05C48.94 56.71 46.7 54.36 44.46 52.02C46.21 51.97 47.89 52.95 49.65 53.08C50.69 51.84 51.56 50.53 52.29 49.09C53.98 45.78 52.23 41.72 52.24 38C52.65 37.86 53.05 37.73 53.46 37.59C53.45 33.25 53.37 28.91 53.36 24.56C55.45 24.81 57.71 24.99 59.8 25.24C60.11 24.64 60.31 23.93 60.62 23.33C61.81 23.64 63.07 23.73 64.25 24.04C65.18 22.85 65.98 21.5 66.57 20.11C68.6 22.59 71.11 24.58 73.82 26.29C73.77 28.22 73.82 30.09 73.8 32L73.81 32.01Z" fill="#F6F6FB" stroke="#EFEFEF" stroke-miterlimit="10"/>
<path d="M44.02 82.15C43.28 82.39 42.56 82.8301 41.82 83.0601C41.82 85.7701 41.82 88.51 41.82 91.21V91.38C41.35 92.01 40.88 92.79 40.41 93.41C38.8 93.41 37.02 93.5699 35.4 93.5699C34.93 92.5599 34.18 91.6 33.71 90.59C32.77 90.68 31.79 90.71 30.85 90.8C29.81 91.69 28.51 92.74 27.47 93.63C26.91 94.12 25.96 94.0399 25.23 94.1899C24.86 93.1799 24.14 92.24 23.77 91.24C22.98 91.39 22.2 91.52 21.42 91.66C21.05 91.51 20.68 91.36 20.3 91.21C20.77 90.17 21.05 89.03 21.53 87.99C22.93 84.92 22.24 81.33 22.64 77.98C22.19 77.41 21.48 76.9 20.83 76.61C20.63 76.52 20.42 76.45 20.21 76.4C20.54 75.87 20.87 75.3401 21.2 74.8101C22.29 74.9101 23.2 74.9 24.3 75C25.24 77.04 26.34 79.0201 27.27 81.0601C28.99 81.4201 30.74 81.8299 32.46 82.1899C33.73 81.0299 35.08 79.92 35.85 78.37C35.75 77.43 35.73 76.35 35.63 75.41C36.73 74.48 37.7 73.32 38.79 72.39C39.61 72.56 40.39 72.59 41.2 72.71C41.83 75.05 42.76 77.3201 43.96 79.4301C44.35 80.1101 44.02 81.36 44.02 82.14V82.15Z" fill="#F6F6FB" stroke="#EFEFEF" stroke-miterlimit="10"/>
<path d="M68.8101 39.92C68.7001 40.99 68.9501 42.05 69.0601 43.12C69.1301 43.83 69.1201 44.58 68.9201 45.25C69.2801 45.46 69.6301 45.68 69.9901 45.89C69.3401 46.73 69.2801 47.97 69.8401 48.88C70.4001 49.78 71.5401 50.28 72.5801 50.07C72.1501 52.81 71.7201 55.56 71.2901 58.3C71.0801 59.64 70.8701 61.04 71.3101 62.33C71.7501 63.61 73.0601 64.71 74.3801 64.43C74.4601 65.11 74.5401 65.79 74.6201 66.48C74.9901 66.25 75.3701 66.01 75.7401 65.78C77.3301 64.77 78.9101 63.77 80.5001 62.76C83.0901 64.91 86.8501 64.71 90.2101 64.38C91.6701 64.24 93.1301 64.1 94.5901 63.96C94.7801 63.15 94.9801 62.35 95.2101 61.56C92.2101 60.97 89.4101 59.33 87.4801 56.95C86.3901 55.61 85.5701 54.05 84.3101 52.86C83.0601 51.67 81.1701 50.91 79.5901 51.61C80.2301 49.97 80.6401 48.23 80.7901 46.47C81.2001 41.76 79.8001 37.11 78.1801 32.64C77.3701 32.66 76.5601 32.69 75.7501 32.71C75.0401 32.73 74.2901 32.74 73.7901 33.25C73.7901 32.83 73.8001 32.42 73.8101 32.01C72.9601 33.09 72.1001 34.17 71.2501 35.25C70.1501 36.65 69.0001 38.15 68.8101 39.92Z" fill="#F6F6FB" stroke="#EFEFEF" stroke-miterlimit="10"/>
<path d="M43.58 69.6C42.96 70.68 42.19 71.6901 41.7 72.8101C41.53 72.7801 41.36 72.75 41.2 72.72C40.39 72.6 39.62 72.58 38.79 72.4C37.7 73.33 36.73 74.49 35.63 75.42C35.73 76.36 35.75 77.44 35.85 78.38C35.09 79.93 33.73 81.03 32.46 82.2C30.74 81.84 28.99 81.4299 27.27 81.0699C26.34 79.0399 25.24 77.05 24.3 75.01C23.21 74.91 22.3 74.9199 21.2 74.8199C20.87 75.3499 20.54 75.88 20.21 76.41C18.91 76.07 17.43 76.27 16.08 76.17L15.61 76.08C13.89 77.04 12.27 78.19 10.81 79.5C10.59 78.17 10.33 76.83 10.11 75.5C7.85999 74.54 5.62 73.51 3.37 72.54C3.27 71.99 3.21 71.3501 3.12 70.8101C2.57 70.4001 2.03999 69.9799 1.48999 69.5699C2.55999 68.8399 3.66001 68.19 4.89001 67.77C4.95001 66.21 5 64.65 5.06 63.1C6.51 62.56 7.97001 62.02 9.42001 61.48C9.94001 59.57 10.37 57.54 10.39 55.57C11.24 55.38 12.09 55.19 12.94 55C12.65 53.65 12.44 52.15 12.16 50.8C11.98 49.94 11.8 49.06 11.91 48.19C12.02 47.32 12.49 46.44 13.29 46.07C16.31 47.67 19.15 49.57 21.47 52.07C22.62 53.31 23.67 54.64 24.83 55.87C26.33 57.46 28.02 58.89 29.85 60.09C30.42 60.46 31.11 60.83 31.75 60.6C32.33 60.39 32.64 59.76 32.88 59.19H32.92C36.08 63.03 39.67 66.53 43.59 69.6H43.58Z" fill="#F6F6FB" stroke="#EFEFEF" stroke-miterlimit="10"/>
<path d="M80.78 46.47C80.63 48.23 80.22 49.97 79.58 51.61C81.15 50.9 83.05 51.67 84.3 52.86C85.55 54.05 86.38 55.61 87.47 56.95C89.4 59.33 92.2 60.97 95.2 61.56C95.85 59.35 96.76 57.27 98.38 55.66C100.18 53.88 102.89 52.56 103.2 50.05C106.51 49.24 109.81 48.43 113.12 47.62C113.12 46.29 113.13 44.96 113.18 43.63C111.36 43.44 109.93 41.97 108.69 40.59C107.54 39.31 106.4 38.03 105.25 36.76C103.2 39.05 102.09 42.38 99.36 43.83C96.99 45.09 94.11 44.57 91.48 44.01C91.41 42.02 91.35 40.02 91.28 38.03C88.99 36.43 86.7 34.83 84.4 33.23C84.01 32.96 83.59 32.68 83.12 32.66C82.65 32.64 82.13 33.03 82.19 33.5C81.66 32.66 81.14 31.81 80.61 30.97C80.07 31.33 79.68 31.97 79.74 32.59C79.21 32.61 78.69 32.62 78.16 32.64C79.78 37.12 81.18 41.76 80.77 46.47H80.78Z" fill="#F6F6FB" stroke="#EFEFEF" stroke-miterlimit="10"/>
</svg>
