<svg width="75" height="75" viewBox="0 0 75 75" fill="none" xmlns="http://www.w3.org/2000/svg">
<path d="M56.25 25C61.4277 25 65.625 20.8027 65.625 15.625C65.625 10.4473 61.4277 6.25 56.25 6.25C51.0723 6.25 46.875 10.4473 46.875 15.625C46.875 20.8027 51.0723 25 56.25 25Z" stroke="white" stroke-width="4" stroke-linecap="round" stroke-linejoin="round"/>
<path d="M18.75 46.875C23.9277 46.875 28.125 42.6777 28.125 37.5C28.125 32.3223 23.9277 28.125 18.75 28.125C13.5723 28.125 9.375 32.3223 9.375 37.5C9.375 42.6777 13.5723 46.875 18.75 46.875Z" stroke="white" stroke-width="4" stroke-linecap="round" stroke-linejoin="round"/>
<path d="M56.25 68.75C61.4277 68.75 65.625 64.5527 65.625 59.375C65.625 54.1973 61.4277 50 56.25 50C51.0723 50 46.875 54.1973 46.875 59.375C46.875 64.5527 51.0723 68.75 56.25 68.75Z" stroke="white" stroke-width="4" stroke-linecap="round" stroke-linejoin="round"/>
<path d="M26.8438 42.2188L48.1875 54.6563" stroke="white" stroke-width="4" stroke-linecap="round" stroke-linejoin="round"/>
<path d="M48.1563 20.3438L26.8438 32.7813" stroke="white" stroke-width="4" stroke-linecap="round" stroke-linejoin="round"/>
</svg>
